<svg xmlns="http://www.w3.org/2000/svg" width="1400" height="520" viewBox="0 0 1400 520">
  <defs>
    <linearGradient id="bg" x1="0" y1="0" x2="0" y2="1">
      <stop offset="0%" stop-color="#091a2c"/>
      <stop offset="100%" stop-color="#050c16"/>
    </linearGradient>
    <linearGradient id="cyan" x1="0" y1="0" x2="1" y2="1">
      <stop offset="0%" stop-color="#7ce8ff"/>
      <stop offset="100%" stop-color="#1c8fbc"/>
    </linearGradient>
    <radialGradient id="core" cx="50%" cy="50%" r="50%">
      <stop offset="0%" stop-color="#8cf1ff" stop-opacity="0.95"/>
      <stop offset="38%" stop-color="#4bcff7" stop-opacity="0.65"/>
      <stop offset="100%" stop-color="#1f8fbb" stop-opacity="0.02"/>
    </radialGradient>
    <filter id="glow">
      <feGaussianBlur stdDeviation="3" result="blur"/>
      <feMerge>
        <feMergeNode in="blur"/>
        <feMergeNode in="SourceGraphic"/>
      </feMerge>
    </filter>
  </defs>

  <rect width="1400" height="520" fill="url(#bg)"/>
  <g opacity="0.14">
    <path d="M0 52H1400M0 104H1400M0 156H1400M0 208H1400M0 260H1400M0 312H1400M0 364H1400M0 416H1400M0 468H1400" stroke="#49b7e4" stroke-width="1"/>
    <path d="M70 0V520M140 0V520M210 0V520M280 0V520M350 0V520M420 0V520M490 0V520M560 0V520M630 0V520M700 0V520M770 0V520M840 0V520M910 0V520M980 0V520M1050 0V520M1120 0V520M1190 0V520M1260 0V520M1330 0V520" stroke="#49b7e4" stroke-width="1"/>
  </g>

  <g transform="translate(700 260)" filter="url(#glow)">
    <circle r="168" fill="none" stroke="#54d9ff" stroke-width="2.4" opacity="0.8"/>
    <circle r="142" fill="none" stroke="#2cb8e5" stroke-width="2" opacity="0.75" stroke-dasharray="14 10"/>
    <circle r="108" fill="none" stroke="#4de2ff" stroke-width="1.8" opacity="0.72" stroke-dasharray="4 8"/>
    <circle r="76" fill="none" stroke="#4de2ff" stroke-width="1.6" opacity="0.8"/>
    <circle r="52" fill="url(#core)" opacity="0.95"/>
    <circle r="26" fill="#96f1ff" opacity="0.9"/>

    <path d="M-192 0H192M0 -192V192" stroke="#4bd4fb" stroke-width="1.6" opacity="0.65"/>
    <path d="M-136 -136L136 136M136 -136L-136 136" stroke="#2ca6cf" stroke-width="1.2" opacity="0.45"/>

    <path d="M-210 -48A220 220 0 0 1 -168 -124" fill="none" stroke="url(#cyan)" stroke-width="4" stroke-linecap="round"/>
    <path d="M138 146A220 220 0 0 1 208 28" fill="none" stroke="url(#cyan)" stroke-width="4" stroke-linecap="round"/>
    <path d="M-38 214A220 220 0 0 1 58 210" fill="none" stroke="#ffb867" stroke-width="4" stroke-linecap="round"/>
  </g>

  <g fill="none" stroke="#49cdf5" stroke-width="2" opacity="0.75">
    <path d="M70 80h230l20 20h86"/>
    <path d="M1330 80h-230l-20 20h-86"/>
    <path d="M70 440h230l20-20h86"/>
    <path d="M1330 440h-230l-20-20h-86"/>
  </g>

  <g font-family="Rajdhani, Exo 2, Segoe UI, sans-serif" fill="#bceeff">
    <text x="74" y="56" font-size="36" letter-spacing="3">JARVIS DIAGNOSTIC GRID</text>
    <text x="74" y="96" font-size="22" fill="#75c0df">MARK-85 TELEMETRY INTERFACE</text>
    <text x="74" y="490" font-size="20" fill="#75c0df">ARC CORE STATUS: STABLE</text>
    <text x="1066" y="490" font-size="20" fill="#75c0df">SERVO SYNC: LOCKED</text>
  </g>

  <g fill="#3dd6ff" opacity="0.95">
    <circle cx="168" cy="146" r="4"/>
    <circle cx="1232" cy="146" r="4"/>
    <circle cx="168" cy="374" r="4"/>
    <circle cx="1232" cy="374" r="4"/>
  </g>
</svg>
